<?xml version="1.0" encoding="UTF-8" standalone="no"?>
<!-- Created with Inkscape (http://www.inkscape.org/) -->

<svg
   width="512"
   height="512"
   viewBox="0 0 512 512"
   version="1.1"
   id="svg1"
   sodipodi:docname="skymake.svg"
   inkscape:version="1.3.2 (091e20ef0f, 2023-11-25)"
   inkscape:export-filename="logo.png"
   inkscape:export-xdpi="48"
   inkscape:export-ydpi="48"
   xml:space="preserve"
   xmlns:inkscape="http://www.inkscape.org/namespaces/inkscape"
   xmlns:sodipodi="http://sodipodi.sourceforge.net/DTD/sodipodi-0.dtd"
   xmlns:xlink="http://www.w3.org/1999/xlink"
   xmlns="http://www.w3.org/2000/svg"
   xmlns:svg="http://www.w3.org/2000/svg"><sodipodi:namedview
     id="namedview1"
     pagecolor="#505050"
     bordercolor="#eeeeee"
     borderopacity="1"
     inkscape:showpageshadow="0"
     inkscape:pageopacity="0"
     inkscape:pagecheckerboard="0"
     inkscape:deskcolor="#505050"
     inkscape:document-units="px"
     inkscape:zoom="1.78"
     inkscape:cx="211.79775"
     inkscape:cy="236.23596"
     inkscape:window-width="2560"
     inkscape:window-height="1384"
     inkscape:window-x="0"
     inkscape:window-y="0"
     inkscape:window-maximized="1"
     inkscape:current-layer="layer1" /><defs
     id="defs1"><inkscape:path-effect
       effect="fillet_chamfer"
       id="path-effect10"
       is_visible="true"
       lpeversion="1"
       nodesatellites_param="F,0,0,1,0,0,0,1 @ F,0,0,1,0,0,0,1 @ F,0,0,1,0,0,0,1 @ F,0,0,1,0,0,0,1 @ F,0,0,1,0,0,0,1 @ F,0,0,1,0,0,0,1 @ F,0,0,1,0,0,0,1 @ F,0,0,1,0,0,0,1 @ F,0,0,1,0,0,0,1 @ F,0,0,1,0,0,0,1 @ F,0,0,1,0,0,0,1 @ F,0,0,1,0,0,0,1 @ F,0,0,1,0,0,0,1 @ F,0,0,1,0,0,0,1 @ F,0,0,1,0,0,0,1 @ F,0,0,1,0,0,0,1 @ F,0,0,1,0,0,0,1 @ F,0,0,1,0,0,0,1 @ F,0,0,1,0,0,0,1 @ F,0,0,1,0,0,0,1 @ F,0,0,1,0,0,0,1 @ F,0,0,1,0,0,0,1 | F,0,0,1,0,0,0,1 @ F,0,0,1,0,0,0,1 @ F,0,0,1,0,0,0,1 @ F,0,0,1,0,0,0,1 @ F,0,0,1,0,0,0,1 @ F,0,0,1,0,0,0,1 @ F,0,0,1,0,0,0,1 @ F,0,0,1,0,0,0,1 @ F,0,0,1,0,0,0,1 @ F,0,0,1,0,0,0,1 @ F,0,0,1,0,0,0,1 @ F,0,0,1,0,0,0,1 @ F,0,0,1,0,0,0,1 @ F,0,0,1,0,0,0,1 @ F,0,0,1,0,0,0,1 @ F,0,0,1,0,0,0,1 @ F,0,0,1,0,0,0,1 @ F,0,0,1,0,0,0,1 @ F,0,0,1,0,0,0,1 @ F,0,0,1,0,0,0,1 @ F,0,0,1,0,0,0,1 @ F,0,0,1,0,0,0,1 @ F,0,0,1,0,0,0,1 @ F,0,0,1,0,0,0,1 @ F,0,0,1,0,0,0,1 | F,0,0,1,0,0,0,1 @ F,0,0,1,0,0,0,1 @ F,0,0,1,0,0,0,1 @ F,0,0,1,0,0,0,1 @ F,0,0,1,0,0,0,1 @ F,0,0,1,0,0,0,1 @ F,0,0,1,0,0,0,1 @ F,0,0,1,0,0,0,1 @ F,0,0,1,0,0,0,1 @ F,0,0,1,0,0,0,1 @ F,0,0,1,0,0,0,1 @ F,0,0,1,0,0,0,1 @ F,0,0,1,0,0,0,1 @ F,0,0,1,0,0,0,1 @ F,0,0,1,0,0,0,1 @ F,0,0,1,0,0,0,1 @ F,0,0,1,0,0,0,1 @ F,0,0,1,0,0,0,1 @ F,0,0,1,0,0,0,1 @ F,0,0,1,0,0,0,1 @ F,0,0,1,0,0,0,1 @ F,0,0,1,0,0,0,1 @ F,0,0,1,0,0,0,1 @ F,0,0,1,0,0,0,1 @ F,0,0,1,0,0,0,1 @ F,0,0,1,0,0,0,1 @ F,0,0,1,0,0,0,1 @ F,0,0,1,0,0,0,1 @ F,0,0,1,0,0,0,1 | F,0,0,1,0,0,0,1 @ F,0,0,1,0,0,0,1 @ F,0,0,1,0,0,0,1 @ F,0,0,1,0,0,0,1 @ F,0,0,1,0,0,0,1 @ F,0,0,1,0,0,0,1 @ F,0,0,1,0,0,0,1 @ F,0,0,1,0,0,0,1 @ F,0,0,1,0,0,0,1 @ F,0,0,1,0,0,0,1 @ F,0,0,1,0,0,0,1 @ F,0,0,1,0,0,0,1 @ F,0,0,1,0,0,0,1 @ F,0,0,1,0,0,0,1 | F,0,0,1,0,0,0,1 @ F,0,0,1,0,0,0,1 @ F,0,0,1,0,0,0,1 @ F,0,0,1,0,0,0,1 @ F,0,0,1,0,0,0,1 @ F,0,0,1,0,0,0,1 @ F,0,0,1,0,0,0,1 @ F,0,0,1,0,0,0,1 @ F,0,0,1,0,0,0,1 @ F,0,0,1,0,0,0,1 @ F,0,0,1,0,0,0,1 @ F,0,0,1,0,0,0,1 @ F,0,0,1,0,0,0,1 @ F,0,0,1,0,0,0,1 @ F,0,0,1,0,0,0,1 @ F,0,0,1,0,0,0,1 @ F,0,0,1,0,0,0,1 @ F,0,0,1,0,0,0,1 @ F,0,0,1,0,0,0,1 @ F,0,0,1,0,0,0,1 @ F,0,0,1,0,0,0,1 | F,0,0,1,0,0,0,1 @ F,0,0,1,0,0,0,1 @ F,0,0,1,0,0,0,1 @ F,0,0,1,0,0,0,1 @ F,0,0,1,0,0,0,1 @ F,0,0,1,0,0,0,1 @ F,0,0,1,0,0,0,1 @ F,0,0,1,0,0,0,1 @ F,0,0,1,0,0,0,1 @ F,0,0,1,0,0,0,1 @ F,0,0,1,0,0,0,1 @ F,0,0,1,0,0,0,1 @ F,0,0,1,0,0,0,1 @ F,0,0,1,0,0,0,1 @ F,0,0,1,0,0,0,1 @ F,0,0,1,0,0,0,1 @ F,0,0,1,0,0,0,1 @ F,0,0,1,0,0,0,1 @ F,0,0,1,0,0,0,1 | F,0,0,1,0,0,0,1 @ F,0,0,1,0,0,0,1 @ F,0,0,1,0,0,0,1 @ F,0,0,1,0,0,0,1 @ F,0,0,1,0,0,0,1 @ F,0,0,1,0,0,0,1 @ F,0,0,1,0,0,0,1 @ F,0,0,1,0,0,0,1 @ F,0,0,1,0,0,0,1 @ F,0,0,1,0,0,0,1 @ F,0,0,1,0,0,0,1 @ F,0,0,1,0,0,0,1 @ F,0,0,1,0,0,0,1 | F,0,0,1,0,0,0,1 @ F,0,0,1,0,0,0,1 @ F,0,0,1,0,0,0,1"
       radius="0"
       unit="px"
       method="auto"
       mode="F"
       chamfer_steps="1"
       flexible="false"
       use_knot_distance="true"
       apply_no_radius="true"
       apply_with_radius="true"
       only_selected="false"
       hide_knots="false" /><inkscape:path-effect
       effect="interpolate"
       id="path-effect9"
       is_visible="true"
       lpeversion="1"
       trajectory="m 1482.7741,143.47545 119.5509,19.11356"
       equidistant_spacing="true"
       steps="7" /><inkscape:path-effect
       effect="fill_between_many"
       id="path-effect8"
       is_visible="true"
       lpeversion="1.2"
       linkedpaths=""
       method="d"
       join="true"
       close="true"
       autoreverse="true" /><inkscape:path-effect
       effect="lattice2"
       gridpoint0="32.056641,293.83466"
       gridpoint1="478.58984,295.94012"
       gridpoint2="32.056641,490.96875"
       gridpoint3="478.58984,490.96875"
       gridpoint4="143.68994,328.70793"
       gridpoint5="366.95654,330.78416"
       gridpoint6="143.68994,490.96875"
       gridpoint7="366.95654,490.96875"
       gridpoint8x9="255.32324,340.66216"
       gridpoint10x11="255.32324,490.96875"
       gridpoint12="32.056641,359.521"
       gridpoint13="478.58984,359.521"
       gridpoint14="32.056641,447.15283"
       gridpoint15="478.58984,447.15283"
       gridpoint16="143.68994,359.521"
       gridpoint17="366.95654,359.521"
       gridpoint18="143.68994,447.15283"
       gridpoint19="366.95654,447.15283"
       gridpoint20x21="255.32324,359.521"
       gridpoint22x23="255.32324,447.15283"
       gridpoint24x26="32.056641,403.33691"
       gridpoint25x27="478.58984,403.33691"
       gridpoint28x30="143.68994,403.33692"
       gridpoint29x31="366.95654,403.33692"
       gridpoint32x33x34x35="255.32324,403.33692"
       id="path-effect7"
       is_visible="true"
       lpeversion="1"
       horizontal_mirror="false"
       vertical_mirror="false"
       perimetral="true"
       live_update="true" /><inkscape:path-effect
       effect="lattice2"
       gridpoint0="32.817295,24.453125"
       gridpoint1="474.39648,24.453125"
       gridpoint2="32.817295,292.41797"
       gridpoint3="474.39648,292.41797"
       gridpoint4="143.21209,10.274634"
       gridpoint5="364.00168,6.5751402"
       gridpoint6="143.21209,263.22141"
       gridpoint7="364.00168,264.81694"
       gridpoint8x9="253.60689,-6.7984993"
       gridpoint10x11="253.60689,253.98502"
       gridpoint12="32.817295,91.444336"
       gridpoint13="474.39648,91.444336"
       gridpoint14="32.817295,225.42676"
       gridpoint15="474.39648,225.42676"
       gridpoint16="143.21209,91.444336"
       gridpoint17="364.00168,91.444336"
       gridpoint18="143.21209,225.42676"
       gridpoint19="364.00168,225.42676"
       gridpoint20x21="253.60689,91.444336"
       gridpoint22x23="253.60689,225.42676"
       gridpoint24x26="32.817295,158.43555"
       gridpoint25x27="474.39648,158.43555"
       gridpoint28x30="143.21209,158.43555"
       gridpoint29x31="364.00168,158.43555"
       gridpoint32x33x34x35="253.60689,158.43555"
       id="path-effect6"
       is_visible="true"
       lpeversion="1"
       horizontal_mirror="false"
       vertical_mirror="false"
       perimetral="true"
       live_update="true" /><inkscape:path-effect
       effect="bspline"
       id="path-effect5"
       is_visible="true"
       lpeversion="1.3"
       weight="33.333333"
       steps="2"
       helper_size="0"
       apply_no_weight="true"
       apply_with_weight="true"
       only_selected="false"
       uniform="false" /><inkscape:path-effect
       effect="fill_between_many"
       id="path-effect4"
       is_visible="true"
       lpeversion="1.2"
       linkedpaths=""
       method="bsplinespiro"
       join="true"
       close="true"
       autoreverse="true" /><inkscape:path-effect
       effect="skeletal"
       id="path-effect3"
       is_visible="true"
       lpeversion="1"
       pattern="M 0,0 H 1"
       copytype="single_stretched"
       prop_scale="1"
       scale_y_rel="false"
       spacing="0"
       normal_offset="0"
       tang_offset="0"
       prop_units="false"
       vertical_pattern="false"
       hide_knot="false"
       fuse_tolerance="0" /><inkscape:path-effect
       effect="perspective-envelope"
       up_left_point="43.52,24.453125"
       up_right_point="481,24.453125"
       down_left_point="32.817295,292.41797"
       down_right_point="474.39648,292.41797"
       id="path-effect2"
       is_visible="true"
       lpeversion="1"
       deform_type="perspective"
       horizontal_mirror="false"
       vertical_mirror="false"
       overflow_perspective="false" /><inkscape:path-effect
       effect="bend_path"
       id="path-effect1"
       is_visible="true"
       lpeversion="1"
       bendpath="M 32.817295,158.43555 H 474.39648"
       prop_scale="1"
       scale_y_rel="false"
       vertical="false"
       hide_knot="false" /><linearGradient
       id="linearGradient36"
       inkscape:collect="always"><stop
         style="stop-color:#1c9cf0;stop-opacity:1;"
         offset="0.43460482"
         id="stop36" /><stop
         style="stop-color:#ffffff;stop-opacity:1;"
         offset="1"
         id="stop35" /></linearGradient><inkscape:path-effect
       effect="fillet_chamfer"
       id="path-effect35"
       is_visible="true"
       lpeversion="1"
       nodesatellites_param="F,0,0,1,0,0,0,1 @ F,0,0,1,0,0,0,1 @ F,0,0,1,0,0,0,1 @ F,0,0,1,0,0,0,1 @ F,0,0,1,0,0,0,1 @ F,0,0,1,0,0,0,1 @ F,0,0,1,0,0,0,1 @ F,0,0,1,0,0,0,1 @ F,0,0,1,0,0,0,1 @ F,0,0,1,0,0,0,1 @ F,0,0,1,0,0,0,1 @ F,0,0,1,0,0,0,1 @ F,0,0,1,0,0,0,1 @ F,0,0,1,0,0,0,1 @ F,0,0,1,0,0,0,1 @ F,0,0,1,0,0,0,1"
       radius="0"
       unit="px"
       method="auto"
       mode="F"
       chamfer_steps="1"
       flexible="false"
       use_knot_distance="true"
       apply_no_radius="true"
       apply_with_radius="true"
       only_selected="false"
       hide_knots="false" /><inkscape:path-effect
       effect="bend_path"
       id="path-effect34"
       is_visible="true"
       lpeversion="1"
       bendpath="M 337.12115,159.27021 H 474.39688"
       prop_scale="1.12"
       scale_y_rel="false"
       vertical="false"
       hide_knot="false" /><inkscape:path-effect
       effect="interpolate_points"
       id="path-effect33"
       is_visible="true"
       lpeversion="1"
       interpolator_type="CentripetalCatmullRom" /><inkscape:path-effect
       effect="fill_between_many"
       id="path-effect32"
       is_visible="true"
       lpeversion="1.2"
       linkedpaths=""
       method="bsplinespiro"
       join="true"
       close="true"
       autoreverse="true" /><inkscape:path-effect
       effect="tiling"
       id="path-effect31"
       is_visible="true"
       lpeversion="1"
       unit="px"
       seed="1;1"
       lpesatellites=""
       num_rows="3"
       num_cols="3"
       gapx="-58"
       gapy="0"
       offset="0"
       offset_type="false"
       scale="0"
       rotate="0"
       mirrorrowsx="false"
       mirrorrowsy="false"
       mirrorcolsx="false"
       mirrorcolsy="false"
       mirrortrans="false"
       shrink_interp="false"
       split_items="false"
       link_styles="false"
       interpolate_scalex="false"
       interpolate_scaley="true"
       interpolate_rotatex="false"
       interpolate_rotatey="true"
       random_scale="false"
       random_rotate="false"
       random_gap_y="false"
       random_gap_x="false"
       transformorigin="" /><linearGradient
       id="linearGradient27"
       inkscape:collect="always"><stop
         style="stop-color:#ffbf21;stop-opacity:1;"
         offset="0.32729426"
         id="stop27" /><stop
         style="stop-color:#ff009c;stop-opacity:1;"
         offset="1"
         id="stop2" /></linearGradient><inkscape:path-effect
       effect="lattice2"
       gridpoint0="-669.8723,-23.632343"
       gridpoint1="-499.58894,-23.632343"
       gridpoint2="-669.8723,154.62952"
       gridpoint3="-499.58894,154.62952"
       gridpoint4="-627.30146,-23.632343"
       gridpoint5="-542.15978,-23.632343"
       gridpoint6="-627.30146,154.62952"
       gridpoint7="-542.15978,154.62952"
       gridpoint8x9="-584.73062,-23.632343"
       gridpoint10x11="-584.73062,154.62952"
       gridpoint12="-669.8723,20.933123"
       gridpoint13="-499.58894,20.933123"
       gridpoint14="-669.8723,110.06405"
       gridpoint15="-499.58894,110.06405"
       gridpoint16="-627.30146,20.933123"
       gridpoint17="-542.15978,20.933123"
       gridpoint18="-627.30146,110.06405"
       gridpoint19="-542.15978,110.06405"
       gridpoint20x21="-584.73062,20.933123"
       gridpoint22x23="-584.73062,110.06405"
       gridpoint24x26="-669.8723,65.498589"
       gridpoint25x27="-499.58894,65.498589"
       gridpoint28x30="-627.30146,65.498589"
       gridpoint29x31="-542.15978,65.498589"
       gridpoint32x33x34x35="-584.73062,65.498589"
       id="path-effect57"
       is_visible="true"
       lpeversion="1"
       horizontal_mirror="false"
       vertical_mirror="false"
       perimetral="false"
       live_update="true" /><inkscape:path-effect
       effect="lattice2"
       gridpoint0="293.89847,15.567077"
       gridpoint1="327.37725,15.567077"
       gridpoint2="293.89847,500.13905"
       gridpoint3="327.37725,500.13905"
       gridpoint4="302.26816,15.567077"
       gridpoint5="319.00756,15.567077"
       gridpoint6="302.26816,500.13905"
       gridpoint7="319.00756,500.13905"
       gridpoint8x9="310.63786,15.567077"
       gridpoint10x11="310.63786,500.13905"
       gridpoint12="293.89847,136.71007"
       gridpoint13="327.37725,136.71007"
       gridpoint14="293.89847,378.99606"
       gridpoint15="327.37725,378.99606"
       gridpoint16="302.26816,136.71007"
       gridpoint17="319.00756,136.71007"
       gridpoint18="302.26816,378.99606"
       gridpoint19="319.00756,378.99606"
       gridpoint20x21="310.63786,136.71007"
       gridpoint22x23="310.63786,378.99606"
       gridpoint24x26="293.89847,257.85306"
       gridpoint25x27="327.37725,257.85306"
       gridpoint28x30="302.26816,257.85306"
       gridpoint29x31="319.00756,257.85306"
       gridpoint32x33x34x35="310.63786,257.85306"
       id="path-effect56"
       is_visible="true"
       lpeversion="1"
       horizontal_mirror="false"
       vertical_mirror="false"
       perimetral="false"
       live_update="true" /><inkscape:path-effect
       effect="bend_path"
       id="path-effect55"
       is_visible="true"
       lpeversion="1"
       bendpath="m 293.89847,257.85306 h 33.47878"
       prop_scale="1"
       scale_y_rel="false"
       vertical="false"
       hide_knot="false" /><inkscape:path-effect
       effect="lattice2"
       gridpoint0="-669.87,-23.632343"
       gridpoint1="-499.58894,-23.632343"
       gridpoint2="-669.8723,154.62952"
       gridpoint3="-499.58894,154.62952"
       gridpoint4="-627.30146,-23.632343"
       gridpoint5="-542.15978,-23.632343"
       gridpoint6="-627.30146,154.62952"
       gridpoint7="-542.15978,154.62952"
       gridpoint8x9="-584.73062,-23.632343"
       gridpoint10x11="-584.73062,154.62952"
       gridpoint12="-669.8723,20.933123"
       gridpoint13="-499.58894,20.933123"
       gridpoint14="-669.8723,110.06405"
       gridpoint15="-499.58894,110.06405"
       gridpoint16="-627.30146,20.933123"
       gridpoint17="-542.15978,20.933123"
       gridpoint18="-627.30146,110.06405"
       gridpoint19="-542.15978,110.06405"
       gridpoint20x21="-584.73062,20.933123"
       gridpoint22x23="-584.73062,110.06405"
       gridpoint24x26="-669.8723,65.498589"
       gridpoint25x27="-499.58894,65.498589"
       gridpoint28x30="-627.30146,65.498589"
       gridpoint29x31="-542.15978,65.498589"
       gridpoint32x33x34x35="-584.73062,65.498589"
       id="path-effect54"
       is_visible="true"
       lpeversion="1"
       horizontal_mirror="false"
       vertical_mirror="false"
       perimetral="true"
       live_update="true" /><rect
       x="71.840602"
       y="51.465186"
       width="524.95081"
       height="669.99546"
       id="rect1" /><inkscape:path-effect
       effect="lattice2"
       gridpoint0="32.817295,24.453125"
       gridpoint1="474.39648,24.453125"
       gridpoint2="32.817295,292.41797"
       gridpoint3="474.39648,292.41797"
       gridpoint4="143.21209,10.274634"
       gridpoint5="364.00168,6.5751402"
       gridpoint6="143.21209,263.22141"
       gridpoint7="364.00168,264.81694"
       gridpoint8x9="253.60689,-6.7984993"
       gridpoint10x11="253.60689,253.98502"
       gridpoint12="32.817295,91.444336"
       gridpoint13="474.39648,91.444336"
       gridpoint14="32.817295,225.42676"
       gridpoint15="474.39648,225.42676"
       gridpoint16="143.21209,91.444336"
       gridpoint17="364.00168,91.444336"
       gridpoint18="143.21209,225.42676"
       gridpoint19="364.00168,225.42676"
       gridpoint20x21="253.60689,91.444336"
       gridpoint22x23="253.60689,225.42676"
       gridpoint24x26="32.817295,158.43555"
       gridpoint25x27="474.39648,158.43555"
       gridpoint28x30="143.21209,158.43555"
       gridpoint29x31="364.00168,158.43555"
       gridpoint32x33x34x35="253.60689,158.43555"
       id="path-effect6-3"
       is_visible="true"
       lpeversion="1"
       horizontal_mirror="false"
       vertical_mirror="false"
       perimetral="true"
       live_update="true" /><inkscape:path-effect
       effect="lattice2"
       gridpoint0="32.056641,293.83466"
       gridpoint1="478.58984,295.94012"
       gridpoint2="32.056641,490.96875"
       gridpoint3="478.58984,490.96875"
       gridpoint4="143.68994,328.70793"
       gridpoint5="366.95654,330.78416"
       gridpoint6="143.68994,490.96875"
       gridpoint7="366.95654,490.96875"
       gridpoint8x9="255.32324,340.66216"
       gridpoint10x11="255.32324,490.96875"
       gridpoint12="32.056641,359.521"
       gridpoint13="478.58984,359.521"
       gridpoint14="32.056641,447.15283"
       gridpoint15="478.58984,447.15283"
       gridpoint16="143.68994,359.521"
       gridpoint17="366.95654,359.521"
       gridpoint18="143.68994,447.15283"
       gridpoint19="366.95654,447.15283"
       gridpoint20x21="255.32324,359.521"
       gridpoint22x23="255.32324,447.15283"
       gridpoint24x26="32.056641,403.33691"
       gridpoint25x27="478.58984,403.33691"
       gridpoint28x30="143.68994,403.33692"
       gridpoint29x31="366.95654,403.33692"
       gridpoint32x33x34x35="255.32324,403.33692"
       id="path-effect7-9"
       is_visible="true"
       lpeversion="1"
       horizontal_mirror="false"
       vertical_mirror="false"
       perimetral="true"
       live_update="true" /><radialGradient
       inkscape:collect="always"
       xlink:href="#linearGradient36"
       id="radialGradient2"
       cx="257.88486"
       cy="363.26562"
       fx="257.88486"
       fy="363.26562"
       r="222.83035"
       gradientTransform="matrix(1.6183127,0.00275751,-0.00126694,0.7435337,-158.99324,19.342854)"
       gradientUnits="userSpaceOnUse" /><filter
       inkscape:collect="always"
       style="color-interpolation-filters:sRGB"
       id="filter2"
       x="-0.15930922"
       y="-0.16051369"
       width="1.3186185"
       height="1.3210277"><feGaussianBlur
         inkscape:collect="always"
         stdDeviation="9.6792561"
         id="feGaussianBlur2" /></filter><radialGradient
       inkscape:collect="always"
       xlink:href="#linearGradient27"
       id="radialGradient1"
       cx="261.3252"
       cy="169.89186"
       fx="261.3252"
       fy="169.89186"
       r="226.03323"
       gradientTransform="matrix(-1.8603842,0,0,-0.76238152,747.49047,423.79205)"
       gradientUnits="userSpaceOnUse" /></defs><g
     inkscape:label="Layer 1"
     inkscape:groupmode="layer"
     id="layer1"><path
       id="path11"
       style="font-weight:bold;font-size:266.667px;font-family:Cantarell;-inkscape-font-specification:'Cantarell Bold';opacity:1;mix-blend-mode:normal;fill:#000000;fill-opacity:1;stroke:#000000;stroke-width:95.8133;stroke-linecap:round;stroke-linejoin:round;stroke-miterlimit:4.1;stroke-dasharray:none;stroke-opacity:1;filter:url(#filter2)"
       inkscape:label="Shadow"
       d="m 429.89885,281.35381 c 4.6689,-2.56659 6.6446,-9.1232 6.6446,-21.39453 V 73.420211 c -7.5339,-1.231075 -15.6335,-2.993275 -24.8204,-5.400391 -8.2778,-2.168942 -14.8925,-4.167968 -14.8925,-4.167968 V 181.52959 c -4.2313,-1.51668 -12.6914,-4.66016 -12.6914,-4.66016 -8.9212,-3.33139 -13.5561,-5.02339 -15.9102,-8.18164 -2.3696,-3.1791 -2.5039,-7.89374 -2.5039,-17.39648 V 54.295211 c -14.2008,-4.378653 -27.893,-8.406489 -42.0938,-11.746094 v 81.048833 39.2832 46.60938 l -0.8357,47.64341 -27.7464,-6.0427 13.5138,-80.68861 c 0.6753,-17.51738 -12.263,-47.24914 0,-71.757812 V 40.840133 c -7.0288,-1.343385 -14.9464,-2.61954 -23.543,-3.554688 -7.8465,-0.853553 -14.123,-1.158203 -14.123,-1.158203 V 83.17607 c -4.0164,3.61703 -8.5316,7.779958 -13.4434,12.470708 -4.4813,4.27961 -8.0664,7.839842 -8.0664,7.839842 V 35.859664 c -12.6281,0.378537 -25.0848,1.692817 -37.7129,3.837891 l 5.3948,210.010005 -31.4946,-121.29818 c 0,-24.35605 8.7596,-66.610163 -0.6814,-74.190341 -4.7186,-3.788507 -11.4262,-5.503882 -20.9121,-4.990234 -9.7851,0.529848 -21.4619,3.280672 -37.6192,8.103515 -18.9977,5.670701 -32.522295,11.196996 -40.685495,17.525391 -8.3515,6.474324 -11.9063,14.356957 -11.9063,24.828127 0,36.137142 -1.4889,50.118652 1.0332,57.189452 2.433,6.82092 9.1441,7.5954 25.0977,13.94336 l -9.1563,29.29297 c -9.4396,2.81604 -16.9746,4.39453 -16.9746,4.39453 -0.7522,41.01237 -1.0301,62.72479 6.8887,71.48828 l 9.2344,21.22461 c -10.3248,-2.46506 -22.9478,-5.35487 -35.6465,-7.67383 -11.8866,-2.17064 -21.3867,-3.28125 -21.3867,-3.28125 -0.17,64.2518 -0.5098,192.77735 -0.5098,192.77735 h 38.4863 c 0,-73.60748 -0.5822,-111.71119 0.8535,-131.06641 1.4353,-19.34867 4.8901,-19.91498 12.9649,-18.37305 8.0741,1.54181 11.1889,3.01367 12.2812,21.95508 1.0935,18.96106 0.168,55.54847 0.168,127.48438 h 34.759795 c 0,-68.14872 -0.7064,-103.29073 0.5781,-121.0293 1.2857,-17.7546 4.5588,-17.97704 12.5293,-16.47852 7.9698,1.4984 11.1554,2.78495 12.3496,20.24219 1.1937,17.45021 0.3945,51.11503 0.3945,117.26563 h 38.8282 c 0,-74.72376 2.2069,-78.36266 -3.2891,-100.12731 l 9.77,3.49068 c -4.6008,11.08712 8.2144,-15.79584 8.2144,30.55264 v 65.75391 c 10.8055,0.003 32.4101,0.004 32.4101,0.004 V 439.8578 c 7.2547,0.0722 21.7598,0.0664 21.7598,0.0664 v 38.79297 c 10.6675,-3.5e-4 31.9961,-0.004 31.9961,-0.004 -0.042,-21.88575 -0.127,-65.63867 -0.127,-65.63867 l 14.7578,-19.39294 v 84.50428 c 10.2814,-0.007 30.8379,-0.0274 30.8379,-0.0274 v -63.22656 c 5.8638,4.9856 17.5879,15.21094 17.5879,15.21094 v 47.99609 c 10.2683,-0.0119 30.7989,-0.0371 30.7989,-0.0371 V 394.9695 l 12.1367,26.46769 v 56.33068 c 25.1671,-0.0441 75.4863,-0.11328 75.4863,-0.11328 v -42.81836 c -11.9705,0.35371 -35.9043,1.45508 -35.9043,1.45508 v -30.08203 c 5.8726,-0.49209 12.708,-1.03399 19.9063,-1.52539 6.6347,-0.45294 11.9414,-0.74219 11.9414,-0.74219 v -46.40039 c -10.618,0.95117 -31.8477,3.66601 -31.8477,3.66601 v -26.72461 c 6.6102,-1.09936 14.3367,-2.30739 22.4414,-3.36523 7.4804,-0.97636 13.4629,-1.55859 13.4629,-1.55859 v -45.54493 c -24.6932,3.21906 -50.7931,9.71711 -75.4863,15.79883 z"
       sodipodi:nodetypes="cscscccssccccccccccsccscccccsssssscccccscccsssccsssccccscccccccccccccccccccccsccccscccc"
       transform="matrix(0.85989109,0,0,0.85989109,37.706966,33.322514)" /><path
       id="path10"
       style="font-weight:bold;font-size:266.667px;font-family:Cantarell;-inkscape-font-specification:'Cantarell Bold';fill:#001533;fill-opacity:1;stroke:#ffffff;stroke-width:48.863;stroke-linecap:round;stroke-linejoin:round;stroke-miterlimit:4.1;stroke-dasharray:none;stroke-opacity:1"
       inkscape:label="Outline"
       d="m 407.37315,275.25614 c 4.01475,-2.20698 5.71364,-7.84496 5.71364,-18.39696 V 96.4559 c -6.47834,-1.05859 -13.44312,-2.573891 -21.34284,-4.643748 -7.11801,-1.865054 -12.80594,-3.584 -12.80594,-3.584 V 189.41818 c -3.63845,-1.30418 -10.91321,-4.00722 -10.91321,-4.00722 -7.67127,-2.86463 -11.65678,-4.31957 -13.68104,-7.03532 -2.0376,-2.73369 -2.15309,-6.78776 -2.15309,-14.95908 V 80.010482 C 339.97954,76.245318 328.20573,72.781817 315.99459,69.910121 v 69.693159 33.77928 40.07899 l -0.71861,40.96815 -23.85888,-5.19607 11.62039,-69.38342 c 0.58069,-15.06304 -10.54484,-40.62912 0,-61.70389 V 68.440583 c -6.04399,-1.155166 -12.85228,-2.25252 -20.24441,-3.056646 -6.74714,-0.733963 -12.14424,-0.99593 -12.14424,-0.99593 v 40.456873 c -3.45367,3.11025 -7.33624,6.68991 -11.55987,10.72345 -3.85342,3.67999 -6.93622,6.74141 -6.93622,6.74141 V 64.15792 c -10.85879,0.3255 -21.57019,1.455639 -32.42899,3.300168 L 224.3627,248.04381 197.28078,143.74059 c 0,-20.94355 7.5323,-57.277479 -0.58593,-63.795606 -4.05749,-3.257704 -9.82529,-4.73274 -17.98212,-4.291058 -8.41413,0.455611 -18.4549,2.821021 -32.34843,6.96814 -16.33594,4.876185 -27.96562,9.628198 -34.98509,15.069928 -7.18138,5.567216 -10.23812,12.345416 -10.23812,21.349486 0,31.074 -1.280291,43.09658 0.88844,49.1767 2.09212,5.86524 7.86293,6.53121 21.58129,11.98976 l -7.87342,25.18877 c -8.11703,2.42149 -14.59631,3.77882 -14.59631,3.77882 -0.64681,35.26617 -0.88577,53.93648 5.92353,61.47213 l 7.94058,18.25086 C 106.127,286.77884 95.272593,284.29391 84.353094,282.29986 74.131913,280.43334 65.962861,279.47834 65.962861,279.47834 65.81668,334.72789 65.52449,445.24586 65.52449,445.24586 h 33.09403 c 0,-63.29441 -0.50063,-96.05946 0.733909,-112.70283 1.234211,-16.63775 4.204961,-17.12471 11.148411,-15.79883 6.94284,1.32579 9.62123,2.59144 10.56049,18.87898 0.94029,16.30445 0.14446,47.76564 0.14446,109.62268 h 29.88964 c 0,-58.60047 -0.60743,-88.81877 0.4971,-104.07202 1.10556,-15.26701 3.92007,-15.45828 10.77383,-14.16973 6.85317,1.28847 9.59243,2.39476 10.61931,17.40609 1.02646,15.00527 0.33922,43.95335 0.33922,100.83566 h 33.38803 c 0,-64.25429 1.8977,-67.38335 -2.82826,-86.09858 l 8.40113,3.00161 c -3.95619,9.53371 7.06349,-13.5827 7.06349,26.27194 v 56.54121 c 9.29156,0.003 27.86916,0.004 27.86916,0.004 v -33.41328 c 6.23825,0.0621 18.71106,0.0571 18.71106,0.0571 v 33.35773 c 9.17288,-3e-4 27.51316,-0.004 27.51316,-0.004 -0.0361,-18.81936 -0.10921,-56.4421 -0.10921,-56.4421 l 12.69009,-16.67582 v 72.66448 c 8.84089,-0.006 26.51725,-0.0236 26.51725,-0.0236 v -54.36796 c 5.04222,4.28707 15.12367,13.07975 15.12367,13.07975 v 41.27141 c 8.82962,-0.0102 26.4837,-0.0319 26.4837,-0.0319 v -71.48471 l 10.43624,22.75933 v 48.43825 c 21.64097,-0.0379 64.91,-0.0974 64.91,-0.0974 V 407.2342 c -10.29333,0.30416 -30.87379,1.25121 -30.87379,1.25121 v -25.86723 c 5.04981,-0.42314 10.9275,-0.88913 17.11725,-1.31167 5.70512,-0.38948 10.26831,-0.6382 10.26831,-0.6382 v -39.89928 c -9.13032,0.8179 -27.38556,3.15236 -27.38556,3.15236 v -22.98025 c 5.68406,-0.94532 12.32801,-1.9841 19.29717,-2.89373 6.43232,-0.83957 11.57662,-1.34022 11.57662,-1.34022 v -39.16368 c -21.23346,2.76805 -43.67653,8.35565 -64.91,13.58527 z"
       sodipodi:nodetypes="cscscccssccccccccccsccscccccsssssscccccscccsssccsssccccscccccccccccccccccccccsccccscccc" /><path
       id="path22-0-2"
       style="font-weight:bold;font-size:266.667px;font-family:Cantarell;-inkscape-font-specification:'Cantarell Bold';fill:#1c0033;fill-opacity:1;stroke:#1c0033;stroke-width:30.3867;stroke-linecap:round;stroke-linejoin:round;stroke-miterlimit:4.1;stroke-dasharray:none;stroke-opacity:1"
       inkscape:label="Backround"
       d="m 407.37315,275.25614 c 4.01475,-2.20698 5.71364,-7.84496 5.71364,-18.39696 V 96.4559 c -6.47834,-1.05859 -13.44312,-2.573891 -21.34284,-4.643748 -7.11801,-1.865054 -12.80594,-3.584 -12.80594,-3.584 V 189.41818 c -3.63845,-1.30418 -10.91321,-4.00722 -10.91321,-4.00722 -7.67127,-2.86463 -11.65678,-4.31957 -13.68104,-7.03532 -2.0376,-2.73369 -2.15309,-6.78776 -2.15309,-14.95908 V 80.010482 C 339.97954,76.245318 328.20573,72.781817 315.99459,69.910121 v 69.693159 33.77928 40.07899 l -0.71861,40.96815 -23.85888,-5.19607 11.62039,-69.38342 c 0.58069,-15.06304 -10.54484,-40.62912 0,-61.70389 V 68.440583 c -6.04399,-1.155166 -12.85228,-2.25252 -20.24441,-3.056646 -6.74714,-0.733963 -12.14424,-0.99593 -12.14424,-0.99593 v 40.456873 c -3.45367,3.11025 -7.33624,6.68991 -11.55987,10.72345 -3.85342,3.67999 -6.93622,6.74141 -6.93622,6.74141 V 64.15792 c -10.85879,0.3255 -21.57019,1.455639 -32.42899,3.300168 L 224.3627,248.04381 197.28078,143.74059 c 0,-20.94355 7.5323,-57.277479 -0.58593,-63.795606 -4.05749,-3.257704 -9.82529,-4.73274 -17.98212,-4.291058 -8.41413,0.455611 -18.4549,2.821021 -32.34843,6.96814 -16.33594,4.876185 -27.96562,9.628198 -34.98509,15.069928 -7.18138,5.567216 -10.23812,12.345416 -10.23812,21.349486 0,31.074 -1.280291,43.09658 0.88844,49.1767 2.09212,5.86524 7.86293,6.53121 21.58129,11.98976 l -7.87342,25.18877 c -8.11703,2.42149 -14.59631,3.77882 -14.59631,3.77882 -0.64681,35.26617 -0.88577,53.93648 5.92353,61.47213 l 7.94058,18.25086 C 106.127,286.77884 95.272593,284.29391 84.353094,282.29986 74.131913,280.43334 65.962861,279.47834 65.962861,279.47834 65.81668,334.72789 65.52449,445.24586 65.52449,445.24586 h 33.09403 c 0,-63.29441 -0.50063,-96.05946 0.733909,-112.70283 1.234211,-16.63775 4.204961,-17.12471 11.148411,-15.79883 6.94284,1.32579 9.62123,2.59144 10.56049,18.87898 0.94029,16.30445 0.14446,47.76564 0.14446,109.62268 h 29.88964 c 0,-58.60047 -0.60743,-88.81877 0.4971,-104.07202 1.10556,-15.26701 3.92007,-15.45828 10.77383,-14.16973 6.85317,1.28847 9.59243,2.39476 10.61931,17.40609 1.02646,15.00527 0.33922,43.95335 0.33922,100.83566 h 33.38803 c 0,-64.25429 1.8977,-67.38335 -2.82826,-86.09858 l 8.40113,3.00161 c -3.95619,9.53371 7.06349,-13.5827 7.06349,26.27194 v 56.54121 c 9.29156,0.003 27.86916,0.004 27.86916,0.004 v -33.41328 c 6.23825,0.0621 18.71106,0.0571 18.71106,0.0571 v 33.35773 c 9.17288,-3e-4 27.51316,-0.004 27.51316,-0.004 -0.0361,-18.81936 -0.10921,-56.4421 -0.10921,-56.4421 l 12.69009,-16.67582 v 72.66448 c 8.84089,-0.006 26.51725,-0.0236 26.51725,-0.0236 v -54.36796 c 5.04222,4.28707 15.12367,13.07975 15.12367,13.07975 v 41.27141 c 8.82962,-0.0102 26.4837,-0.0319 26.4837,-0.0319 v -71.48471 l 10.43624,22.75933 v 48.43825 c 21.64097,-0.0379 64.91,-0.0974 64.91,-0.0974 V 407.2342 c -10.29333,0.30416 -30.87379,1.25121 -30.87379,1.25121 v -25.86723 c 5.04981,-0.42314 10.9275,-0.88913 17.11725,-1.31167 5.70512,-0.38948 10.26831,-0.6382 10.26831,-0.6382 v -39.89928 c -9.13032,0.8179 -27.38556,3.15236 -27.38556,3.15236 v -22.98025 c 5.68406,-0.94532 12.32801,-1.9841 19.29717,-2.89373 6.43232,-0.83957 11.57662,-1.34022 11.57662,-1.34022 v -39.16368 c -21.23346,2.76805 -43.67653,8.35565 -64.91,13.58527 z"
       sodipodi:nodetypes="cscscccssccccccccccsccscccccsssssscccccscccsssccsssccccscccccccccccccccccccccsccccscccc" /><path
       id="path22-0"
       style="font-weight:bold;font-size:266.667px;font-family:Cantarell;-inkscape-font-specification:'Cantarell Bold';fill:url(#radialGradient1);stroke:#ffffff;stroke-width:5.53326;stroke-linecap:round;stroke-linejoin:round;stroke-miterlimit:4.1;stroke-dasharray:none;stroke-opacity:1"
       inkscape:label="E"
       d="m 403.10352,311.73912 c 0,59.33031 0,177.95534 0,177.95534 25.16714,-0.0441 75.48632,-0.11232 75.48632,-0.11232 0,-14.2762 0,-42.82002 0,-42.82002 -11.97049,0.35371 -35.90429,1.4562 -35.90429,1.4562 0,-10.02965 0,-30.08294 0,-30.08294 5.87262,-0.49209 12.7073,-1.03396 19.90558,-1.52536 6.63478,-0.45293 11.94207,-0.74102 11.94207,-0.74102 0,-15.47035 0,-46.40178 0,-46.40178 -10.61801,0.95117 -31.84765,3.66671 -31.84765,3.66671 0,-8.90988 0,-26.72427 0,-26.72427 6.61016,-1.09937 14.3364,-2.30698 22.44108,-3.36482 7.48044,-0.97636 13.46321,-1.55928 13.46321,-1.55928 0,-15.18485 0,-45.54544 0,-45.54544 -24.69326,3.21906 -50.79306,9.71727 -75.48632,15.799 z m -91.36133,19.09801 c 0,53.10215 0,159.27459 0,159.27459 10.28135,-0.007 30.83789,-0.0265 30.83789,-0.0265 0,-21.07985 0,-63.22692 0,-63.22692 5.8638,4.9856 17.58789,15.21155 17.58789,15.21155 0,16.00195 0,47.99624 0,47.99624 10.26833,-0.0119 30.79883,-0.0382 30.79883,-0.0382 0,-20.43373 0,-61.28895 0,-61.28895 -5.59326,-5.21183 -11.73326,-10.80841 -18.56275,-16.86107 -6.18536,-5.4818 -11.13647,-9.73983 -11.13647,-9.73983 5.56175,-6.51323 11.76478,-13.93429 18.56275,-22.32948 6.18797,-7.64185 11.13647,-13.96525 11.13647,-13.96525 0,-16.89103 0,-50.66296 0,-50.66296 -5.64834,1.3722 -12.3197,2.97342 -19.25004,4.56143 -6.41666,1.47031 -11.54879,2.57302 -11.54879,2.57302 0,13.32553 0,39.9686 0,39.9686 -3.2934,3.83752 -6.96738,8.06079 -10.99287,12.59595 -3.66369,4.12756 -6.59502,7.35545 -6.59502,7.35545 0,-18.78548 0,-56.34516 0,-56.34516 -10.30416,1.9524 -20.53373,3.62087 -30.83789,4.94746 z m -59.44531,4.18662 c -23.05931,-0.39197 -33.17538,-2.23529 -37.88709,9.11913 -4.60079,11.08713 -3.46448,34.39293 -3.46448,80.74145 0,21.92199 0,65.75282 0,65.75282 10.80555,0.003 32.41016,0.005 32.41016,0.005 0,-12.95511 0,-38.85758 0,-38.85758 7.2547,0.0722 21.75976,0.0658 21.75976,0.0658 0,12.93338 0,38.79236 0,38.79236 10.6675,-3.5e-4 31.9961,-0.004 31.9961,-0.004 -0.0423,-21.88577 -0.12695,-65.63918 -0.12695,-65.63918 0,-45.98453 1.21262,-69.02359 -3.76701,-80.04218 -5.12165,-11.33285 -16.00948,-9.51082 -40.92049,-9.93426 z M 143.45312,322.06383 c -5.07513,-1.17722 -11.79836,-0.28093 -17.29551,0.97417 -5.48308,1.25189 -9.70253,2.85815 -9.70253,2.85815 0,0 -3.75116,-3.41085 -8.98558,-7.24188 -5.2086,-3.81212 -11.971573,-8.09943 -17.869891,-9.50767 -10.324735,-2.46506 -22.948436,-5.35673 -35.647178,-7.67569 -11.88657,-2.17065 -21.386025,-3.28053 -21.386025,-3.28053 -0.169956,64.25186 -0.509765,192.77837 -0.509765,192.77837 12.831342,0 38.486328,0 38.486328,0 0,-73.60755 -0.583052,-111.7127 0.852716,-131.06795 1.435283,-19.34868 4.890845,-19.91509 12.965643,-18.37315 8.074153,1.5418 11.188724,3.01406 12.281074,21.9555 1.093483,18.96108 0.168145,55.54962 0.168145,127.4856 11.588903,0 34.759763,0 34.759763,0 0,-68.14879 -0.70779,-103.2923 0.57674,-121.03089 1.28569,-17.75462 4.56022,-17.976 12.53068,-16.47747 7.96979,1.4984 11.15486,2.78464 12.34905,20.2419 1.19371,17.45022 0.3951,51.1158 0.3951,117.26646 12.9453,0 38.82812,0 38.82812,0 0,-74.72383 2.20719,-114.00596 -3.28882,-135.77064 -2.75052,-10.89226 -7.41931,-17.42215 -15.26023,-22.08996 -7.83688,-4.6654 -18.84295,-7.47103 -34.24783,-11.04432 z m 109.97071,41.09839 c 10.74563,0.12446 11.6914,5.41084 11.6914,62.90515 -7.2547,0.0472 -21.75976,-0.10912 -21.75976,-0.10912 0,-55.7087 -0.67728,-62.92048 10.06836,-62.79603 z"
       inkscape:path-effect="#path-effect7"
       inkscape:original-d="m 403.10352,315.70508 v 174.01758 h 75.48632 v -38.48047 h -35.90429 v -27.95508 h 31.84765 v -41.81836 h -31.84765 v -24.83398 h 35.90429 v -40.92969 z m -91.36133,0.46094 V 490.0332 h 30.83789 v -66.95117 l 17.58789,17.20508 V 490.0332 H 390.9668 V 429.08789 L 361.26758,399.0293 390.9668,366.54492 v -50.3789 h -30.79883 v 41.42578 l -17.58789,18.23828 v -59.66406 z m -59.44531,0.85351 c -45.8968,0 -41.35157,-0.003 -41.35157,101.55078 v 72.03516 h 32.41016 v -43.27344 h 21.75976 v 43.27344 h 31.9961 l -0.12695,-72.40039 c 0,-101.44235 4.85047,-101.18555 -44.6875,-101.18555 z m -108.84376,2.32227 c -10.12398,-0.002 -26.99804,10.12695 -26.99804,10.12695 0,0 -15.00973,-9.94531 -26.855471,-9.94531 H 32.566406 l -0.509765,171.44531 h 38.486328 c 0,-135.56685 -2.33221,-139.95898 13.818359,-139.95898 16.150572,0 12.449219,2.98685 12.449219,139.95898 h 34.759763 c 0,-136.22373 -2.83117,-139.95898 13.10742,-139.95898 15.93861,0 12.74415,2.98685 12.74415,139.95898 H 196.25 c 0,-161.71135 8.82877,-171.61478 -52.79688,-171.62695 z m 109.97071,29.04882 c 10.74563,0 11.6914,6.04394 11.6914,70.17969 h -21.75976 c 0,-62.03956 -0.67728,-70.17968 10.06836,-70.17969 z"
       transform="matrix(0.85989109,0,0,0.85989109,37.706966,23.193573)" /><path
       id="path19"
       style="font-size:266.667px;font-family:'Ubuntu Condensed';-inkscape-font-specification:'Ubuntu Condensed, ';fill:url(#radialGradient2);stroke:#ffffff;stroke-width:7.39307;stroke-linecap:round;stroke-linejoin:round;stroke-miterlimit:4.1;stroke-dasharray:none;stroke-opacity:1"
       inkscape:label="Y"
       d="M 97.287109,9.3391898 C 74.190357,16.233434 57.747787,22.952138 47.823178,30.645987 37.669717,38.51725 33.347656,48.099119 33.347656,60.829605 c 0,43.934315 -1.809683,60.932645 1.256667,69.529085 2.957987,8.29264 11.117096,9.23503 30.512865,16.95267 9.916571,3.94569 20.325655,7.60741 32.399979,11.53369 10.790833,3.50892 19.437913,6.15854 19.437913,6.15854 6.32641,3.34334 6.24219,7.31675 6.24219,33.61217 0,12.35527 -1.21514,18.16709 -6.17428,22.42555 -4.83464,4.15155 -13.78676,7.09957 -28.638224,13.03874 0,-20.97322 0,-62.90709 0,-62.90709 -9.942201,3.69723 -22.166449,8.10099 -34.39957,11.7504 -11.476342,3.42364 -20.63754,5.34456 -20.63754,5.34456 -0.914548,49.86144 -1.250373,76.25779 8.377002,86.91215 4.8083,5.32121 12.123563,6.64083 23.086522,4.3976 11.420352,-2.33683 25.14855,-8.02707 45.06968,-16.58568 19.08065,-8.19753 34.2599,-15.22064 44.20401,-21.15866 10.42017,-6.22229 16.92799,-12.20166 21.04612,-19.8029 8.20113,-15.13761 6.63268,-36.55259 6.63268,-73.87968 0,-10.55692 -0.99827,-14.85879 -12.40854,-21.18076 -5.73184,-3.17578 -13.98656,-6.75631 -26.10112,-11.60647 -7.75767,-3.10586 -32.28558,-12.56571 -48.779401,-19.755294 -9.726996,-4.239965 -6.089843,-19.731413 -6.089843,-48.682549 19.775564,-6.621311 29.063734,-9.387443 33.725264,-4.964779 4.56391,4.330054 4.20833,15.524494 4.20833,36.188686 10.16733,-3.08781 22.17947,-6.630948 34.6547,-9.810645 11.5542,-2.944941 20.79061,-4.813769 20.79061,-4.813769 0,-29.61127 -1.83703,-48.757029 -13.31512,-57.9727519 C 162.7119,0.94647925 154.55781,-1.138209 143.02513,-0.51373273 131.12873,0.13043844 116.93054,3.4757399 97.287109,9.3391898 Z M 337.12109,-8.6357844 c 0,32.8523094 0,98.5372204 0,98.5372204 0,15.922734 0,47.758634 0,47.758634 0,14.8458 -0.0446,22.32769 10.53342,29.71297 5.30606,3.70455 13.21665,7.40382 25.16745,12.42738 7.836,3.2939 31.95432,13.1465 49.10187,19.70042 0.47938,11.08044 0.59718,17.79943 -2.24026,20.60761 -2.8483,2.81893 -8.61826,1.68665 -19.96873,-2.92617 -7.82205,-3.10546 -17.59573,-6.98463 -27.23131,-10.60416 -9.07998,-3.41082 -16.33705,-5.91314 -16.33705,-5.91314 -6.34306,-2.25561 -19.02539,-6.33761 -19.02539,-6.33761 0,14.39401 0,43.17341 0,43.17341 20.32904,6.58883 38.87353,14.29383 63.42661,24.77632 11.69679,4.99373 18.95671,8.08339 26.95365,11.33417 6.86865,2.79214 11.09826,4.39575 11.09826,4.39575 13.09609,5.03164 22.03664,6.81019 27.71726,3.68744 5.67627,-3.12037 8.07961,-11.08984 8.07961,-26.00891 0,-75.61147 0,-226.789066 0,-226.789066 -9.15937,-1.496699 -19.00791,-3.639452 -30.17699,-6.565941 -10.06395,-2.636927 -18.10426,-5.067118 -18.10426,-5.067118 0,47.699037 0,143.068495 0,143.068495 -5.14426,-1.84393 -15.42968,-5.66417 -15.42968,-5.66417 -10.84605,-4.0502 -16.48101,-6.10902 -19.34305,-9.94871 -2.88093,-3.86505 -3.04562,-9.59671 -3.04562,-21.14982 0,-39.315503 0,-117.9229313 0,-117.9229313 C 371.03203,0.32287024 354.38594,-4.5756068 337.12109,-8.6357844 Z M 201.00781,-12.10169 c 0,80.187771 0,240.51521 0,240.51521 8.56553,-1.83494 18.18313,-3.47882 28.65715,-4.51427 9.55153,-0.94426 17.19246,-1.07203 17.19246,-1.07203 0,-30.75979 0,-92.26093 0,-92.26093 4.88726,4.29758 10.37003,9.2592 16.34587,14.90727 5.44845,5.1496 9.80648,9.46745 9.80648,9.46745 0,22.90019 0,68.68683 0,68.68683 8.60145,0.74383 18.11303,2.03442 28.62053,4.16358 9.54131,1.93338 17.17048,4.02777 17.17048,4.02777 0,-28.34387 0,-85.0146 0,-85.0146 -8.26157,-9.82217 -17.50032,-20.42288 -27.59998,-31.34685 -9.19785,-9.94856 -16.55822,-17.365595 -16.55822,-17.365595 8.32031,-7.821488 17.44158,-16.04375 27.59998,-24.72761 9.19414,-7.859571 16.55822,-13.800906 16.55822,-13.800906 0,-23.430194 0,-70.276527 0,-70.276527 -8.54534,-1.633241 -18.16914,-3.184451 -28.62053,-4.321371 -9.53947,-1.037721 -17.17048,-1.407137 -17.17048,-1.407137 0,19.0704886 0,57.200025 0,57.200025 -4.88302,4.397462 -10.37426,9.45679 -16.34587,15.159637 -5.44822,5.203008 -9.80648,9.533 -9.80648,9.533 0,-27.411446 0,-82.217894 0,-82.217894 -15.35282,0.460211 -30.49679,2.057041 -45.84961,4.664948 z"
       inkscape:path-effect="#path-effect6"
       inkscape:original-d="m 97.287109,24.453125 c -46.651211,0 -63.939453,10.987243 -63.939453,36.455078 0,87.892307 -7.238732,66.591027 31.769532,94.822267 l 51.837892,37.51562 c 6.32641,6.00816 6.24219,10.14079 6.24219,37.68164 0,25.88091 -4.86058,22.36333 -34.812504,22.22266 v -64.76953 h -55.03711 c -1.829097,99.35778 -1.343299,104.03711 76.533204,104.03711 78.15661,0 71.88281,-14.1946 71.88281,-94.08789 0,-22.59557 -3.99309,-18.91373 -87.289061,-85.63867 -9.726996,-7.7919 -6.089843,-22.428061 -6.089843,-52.236332 39.355904,-1.107304 37.933594,2.057281 37.933594,45.404302 l 55.44531,1.90624 c 0,-63.37868 -7.34813,-83.312495 -84.476561,-83.312495 z M 337.12109,28.896484 V 133.2832 183.87695 c 0,31.45418 -0.17846,32.41602 84.80274,32.41602 0.95909,22.26684 0.46989,27.19336 -22.20899,27.19336 l -43.56836,0.42187 h -19.02539 v 45.73633 h 101.47852 c 26.18352,0 35.79687,-4.12084 35.79687,-33.95898 V 28.896484 H 426.11523 V 174.74219 h -15.42968 c -21.7299,0 -22.38867,0.41443 -22.38867,-23.54883 V 28.896484 Z M 201.00781,30.851562 V 289.36133 h 45.84961 v -99.54492 l 26.15235,25.58203 v 73.96289 h 45.79101 v -90.61524 l -44.1582,-44.6914 44.1582,-48.29688 V 30.851562 h -45.79101 v 61.59375 L 246.85742,119.56055 V 30.851562 Z"
       transform="matrix(0.70728405,0,0,0.70728405,77.301329,76.144079)" /></g></svg>
